<svg width="48" height="48" viewBox="0 0 48 48" fill="none" xmlns="http://www.w3.org/2000/svg">
<path d="M41.3483 48H0V6.50623L6.65168 0L48 0V41.4938L41.3483 48Z" fill="url(#paint0_linear_1668_386)"/>
<path d="M27 23.0023H37.8954C40.268 23.0023 42.0452 23.588 43.2271 24.7571C44.409 25.9285 45 27.5925 45 29.7537C45 31.9149 44.3565 33.7106 43.0695 34.9614C41.7826 36.2123 39.8171 36.8366 37.1731 36.8366H33V45H27.0022V23L27 23.0023ZM32.9978 32.3802H35.1902C36.4531 32.3802 37.3417 32.1532 37.8517 31.6969C38.3638 31.2406 38.6177 30.6595 38.6177 29.9489C38.6177 29.2384 38.3966 28.6731 37.9523 28.1941C37.508 27.7128 36.6741 27.4745 35.4484 27.4745H32.9956V32.3825L32.9978 32.3802Z" fill="white"/>
<defs>
<linearGradient id="paint0_linear_1668_386" x1="5.95053" y1="11.5534" x2="52.6764" y2="42.6491" gradientUnits="userSpaceOnUse">
<stop stop-color="#19B24B"/>
<stop offset="1" stop-color="#2B56A6"/>
</linearGradient>
</defs>
</svg>
