<svg width="48" height="48" viewBox="0 0 48 48" fill="none" xmlns="http://www.w3.org/2000/svg">
<path d="M35.1902 32.3802H32.9978L32.9956 32.3825V27.4745H35.4484C36.6741 27.4745 37.508 27.7128 37.9523 28.1941C38.3966 28.6731 38.6177 29.2384 38.6177 29.9489C38.6177 30.6595 38.3638 31.2406 37.8517 31.6969C37.3417 32.1532 36.4531 32.3802 35.1902 32.3802Z" fill="white"/>
<path fill-rule="evenodd" clip-rule="evenodd" d="M0 48H41.3483L48 41.4938V0H6.65168L0 6.50623V48ZM27.0022 23.0023H27L27.0022 23V23.0023ZM27.0022 23.0023V45H33V36.8366H37.1731C39.8171 36.8366 41.7826 36.2123 43.0695 34.9614C44.3565 33.7106 45 31.9149 45 29.7537C45 27.5925 44.409 25.9285 43.2271 24.7571C42.0452 23.588 40.268 23.0023 37.8954 23.0023H27.0022Z" fill="white"/>
</svg>
