<svg width="24" height="24" viewBox="0 0 24 24" fill="none" xmlns="http://www.w3.org/2000/svg">
<path d="M22.7044 12.8392C22.8444 13.4316 22.9713 13.9876 23.0954 14.5442C23.1797 14.9224 23.0392 15.1675 22.6428 15.1859C22.0239 15.2148 21.4036 15.2153 20.7838 15.2199C20.5799 15.2214 20.4831 15.1126 20.4182 14.9048C20.1876 14.1662 19.7327 13.7996 19.1061 13.7991C18.4659 13.7986 17.9976 14.1647 17.7788 14.8868C17.7113 15.1095 17.6228 15.2311 17.3873 15.2271C16.8979 15.2189 16.4082 15.221 15.9191 15.2039C15.527 15.1902 15.3263 14.9779 15.3265 14.5786C15.3274 12.6683 15.3259 10.758 15.3262 8.84763C15.3263 8.42289 15.534 8.19987 15.9652 8.24372C16.5322 8.30138 17.1011 8.3573 17.6614 8.45767C18.0226 8.5224 18.3056 8.7566 18.5414 9.04294C18.9772 9.57219 19.445 10.077 19.8543 10.6256C20.351 11.2913 20.9719 11.7523 21.7595 12.0092C22.171 12.1434 22.5438 12.3466 22.7044 12.8392ZM19.2739 11.3982C19.0129 10.7295 18.4533 10.275 18.0599 9.70182C17.7272 9.21711 17.2523 9.08791 16.7054 9.07459C16.3865 9.06683 16.2662 9.20521 16.2717 9.51246C16.2812 10.0335 16.2889 10.5553 16.2694 11.0758C16.2553 11.4514 16.4041 11.6141 16.7797 11.6097C17.4799 11.6015 18.1803 11.6127 18.8806 11.609C19.022 11.6082 19.1815 11.6252 19.2739 11.3982Z" fill="url(#paint0_linear_981_9291)"/>
<path d="M14.718 10.1489C14.7177 10.309 14.7093 10.424 14.7184 10.5377C14.7487 10.916 14.5789 11.0583 14.2011 11.0595C13.1058 11.0631 12.011 11.0513 10.9216 10.9372C9.16984 10.7538 7.41794 10.5527 5.71895 10.0644C4.20527 9.62927 2.73157 9.09581 1.53572 8.00768C1.2476 7.74552 0.968346 7.47416 0.803711 7.11552C0.900311 7.01546 0.971018 7.0732 1.03005 7.12248C2.42521 8.28723 4.1058 8.73819 5.8444 9.02008C8.51439 9.45299 11.2105 9.44622 13.9049 9.45253C14.631 9.45423 14.6867 9.50496 14.718 10.1489Z" fill="url(#paint1_linear_981_9291)"/>
<path d="M3.71054 13.4858C2.54979 12.954 1.49749 12.344 0.868652 11.1914C0.923317 11.2132 0.987317 11.2233 1.0313 11.2584C2.66715 12.5655 4.61828 12.9703 6.62397 13.2531C9.02585 13.5916 11.4419 13.5274 13.8546 13.5792C14.1382 13.5853 14.5262 13.4847 14.6535 13.7933C14.8134 14.1812 14.757 14.631 14.6806 15.0483C14.6475 15.2292 14.4461 15.1821 14.3037 15.1848C12.5879 15.2176 10.8815 15.0865 9.18312 14.86C7.32076 14.6115 5.48455 14.2458 3.71054 13.4858Z" fill="url(#paint2_linear_981_9291)"/>
<path d="M6.82678 11.2058C8.00343 11.3735 9.14423 11.4351 10.2857 11.4732C11.6079 11.5173 12.9308 11.5442 14.2536 11.5645C14.5827 11.5695 14.7136 11.6894 14.725 12.027C14.7617 13.1176 14.642 13.1893 13.5513 13.1435C11.9027 13.0744 10.2617 12.9592 8.6292 12.7188C6.60043 12.42 4.6228 11.9541 2.79841 10.974C2.11374 10.6063 1.51908 10.1269 1.02593 9.52605C0.930699 9.41002 0.770273 9.31421 0.839671 9.05859C2.58166 10.4829 4.63666 10.9714 6.82678 11.2058Z" fill="url(#paint3_linear_981_9291)"/>
<path d="M2.78182 6.17144C4.25031 6.77267 5.75561 7.03112 7.28868 7.18587C9.59924 7.41911 11.9158 7.47967 14.2352 7.47269C14.5954 7.4716 14.7181 7.60788 14.7257 7.96306C14.7485 9.02957 14.6281 9.16075 13.6307 9.08402C12.1506 8.97016 10.6659 8.9257 9.19199 8.7209C6.89986 8.40241 4.65437 7.93893 2.61278 6.78017C2.01045 6.4383 1.48213 6.00193 1.04102 5.46661C0.943943 5.3488 0.790361 5.24987 0.828803 5C1.46116 5.43327 2.05479 5.88166 2.78182 6.17144Z" fill="url(#paint4_linear_981_9291)"/>
<path d="M10.462 18.941H9.99937V18.353H8.14868V18.0287L9.92153 16.0439H10.462V17.9335H10.9593V18.353H10.462V18.941ZM8.79296 17.9335H9.99937V16.5888H9.96477L8.79296 17.899V17.9335Z" fill="black"/>
<path d="M7.74803 18.9434H5.43698V18.6509C5.43698 18.1401 5.63884 17.8846 6.20733 17.691L6.86645 17.4645C7.19601 17.345 7.31136 17.2338 7.31136 16.9907C7.31136 16.6982 7.12186 16.5499 6.62752 16.5499C6.0755 16.5499 5.86953 16.7435 5.86953 17.1061V17.1555H5.43286V17.1143C5.43286 16.6035 5.78302 16.1421 6.644 16.1421C7.4267 16.1421 7.75626 16.5128 7.75626 16.9989C7.75626 17.4521 7.46378 17.691 6.97768 17.8393L6.39683 18.0165C6.02607 18.1442 5.89837 18.276 5.89837 18.5891L6.56573 18.5438H7.74803V18.9434Z" fill="black"/>
<path d="M5.04058 19.0003H2.83252V16.2402H5.04058V16.6398H3.27743V17.4143H4.97878V17.8098H3.27743V18.6007H5.04058V19.0003Z" fill="black"/>
<path d="M21.9258 18.9823C21.0741 18.9823 20.6398 18.6075 20.6398 18.0071V17.9815H21.0997V18.0497C21.0997 18.3904 21.2998 18.5607 21.9258 18.5607C22.4709 18.5607 22.6625 18.4415 22.6625 18.1732C22.6625 17.9262 22.5177 17.8325 22.1558 17.7644L21.4574 17.6494C20.9762 17.5642 20.6355 17.3428 20.6355 16.8743C20.6355 16.4613 20.9762 16.0439 21.8619 16.0439C22.6966 16.0439 23.0756 16.4613 23.0756 17.0191V17.0447H22.6199V16.9893C22.6199 16.6401 22.4113 16.4655 21.8194 16.4655C21.2998 16.4655 21.0954 16.5933 21.0954 16.8488C21.0954 17.0958 21.2402 17.1767 21.5766 17.2491L22.2707 17.3683C22.8414 17.4705 23.1224 17.7303 23.1224 18.1476C23.1224 18.582 22.769 18.9823 21.9258 18.9823Z" fill="black"/>
<path d="M18.7569 18.9823C17.918 18.9823 17.3601 18.4031 17.3601 17.5131C17.3601 16.6231 17.9606 16.0439 18.8719 16.0439C19.681 16.0439 20.2431 16.4528 20.2431 17.1128V17.1469H19.7363V17.1128C19.7363 16.704 19.451 16.4826 18.8591 16.4826C18.1735 16.4826 17.8456 16.802 17.8456 17.5131C17.8456 18.2243 18.1692 18.5394 18.8378 18.5394C19.5191 18.5394 19.7874 18.352 19.7874 17.8708V17.8325H18.7313V17.4833H20.2431V18.9397H19.8258V18.3222H19.7959C19.6767 18.7396 19.3147 18.9823 18.7569 18.9823Z" fill="black"/>
<path d="M13.9311 18.9823H11.6462V16.0439H12.1199V18.5569H13.9311V18.9823Z" fill="black"/>
<circle cx="15.5966" cy="17.5131" r="1.28552" stroke="black" stroke-width="0.367292"/>
<path d="M15.7185 17.4722L16.4558 17.8481L16.366 18.0229L15.5222 17.6089V16.9712H15.7185V17.4722Z" fill="black"/>
<defs>
<linearGradient id="paint0_linear_981_9291" x1="22.5116" y1="8.2172" x2="14.3183" y2="13.9084" gradientUnits="userSpaceOnUse">
<stop stop-color="#D97603"/>
<stop offset="1"/>
</linearGradient>
<linearGradient id="paint1_linear_981_9291" x1="13.6373" y1="7.04848" x2="9.83112" y2="15.2998" gradientUnits="userSpaceOnUse">
<stop offset="0.259615" stop-color="#D97603"/>
<stop offset="1"/>
</linearGradient>
<linearGradient id="paint2_linear_981_9291" x1="13.6738" y1="11.1793" x2="9.86392" y2="19.4228" gradientUnits="userSpaceOnUse">
<stop offset="0.259615" stop-color="#D97603"/>
<stop offset="1"/>
</linearGradient>
<linearGradient id="paint3_linear_981_9291" x1="13.6468" y1="9.04624" x2="9.68861" y2="17.4211" gradientUnits="userSpaceOnUse">
<stop offset="0.259615" stop-color="#D97603"/>
<stop offset="1"/>
</linearGradient>
<linearGradient id="paint4_linear_981_9291" x1="13.6446" y1="4.98763" x2="9.67454" y2="13.3713" gradientUnits="userSpaceOnUse">
<stop offset="0.259615" stop-color="#D97603"/>
<stop offset="1"/>
</linearGradient>
</defs>
</svg>
