<svg width="228" height="143" viewBox="0 0 228 143" fill="none" xmlns="http://www.w3.org/2000/svg">
<path d="M223.193 79.8887C224.619 85.9266 225.913 91.5926 227.177 97.2651C228.036 101.119 226.605 103.617 222.565 103.805C216.258 104.099 209.936 104.104 203.619 104.151C201.542 104.167 200.555 103.058 199.894 100.94C197.544 93.4125 192.908 89.6765 186.522 89.6713C179.997 89.6661 175.225 93.3974 172.996 100.756C172.308 103.026 171.405 104.265 169.005 104.225C164.018 104.141 159.027 104.163 154.043 103.988C150.047 103.849 148.002 101.685 148.004 97.6159C148.013 78.1473 147.997 58.6786 148 39.21C148.001 34.8814 150.118 32.6086 154.512 33.0554C160.291 33.6431 166.089 34.2129 171.798 35.2359C175.48 35.8955 178.364 38.2822 180.767 41.2004C185.208 46.5941 189.976 51.7383 194.147 57.3296C199.209 64.1137 205.536 68.8119 213.563 71.4297C217.757 72.7976 221.556 74.8687 223.193 79.8887ZM188.232 65.2029C185.572 58.3885 179.869 53.7564 175.86 47.9153C172.469 42.9754 167.63 41.6588 162.056 41.523C158.806 41.4439 157.58 42.8541 157.637 45.9854C157.733 51.2952 157.811 56.6135 157.612 61.9176C157.469 65.7451 158.985 67.4038 162.813 67.3591C169.949 67.2756 177.087 67.3894 184.224 67.3512C185.665 67.3435 187.29 67.517 188.232 65.2029Z" fill="url(#paint0_linear_981_9279)"/>
<path d="M141.803 52.4742C141.8 54.1053 141.714 55.2778 141.807 56.436C142.116 60.2915 140.385 61.7415 136.536 61.7542C125.373 61.7911 114.216 61.6702 103.113 60.5078C85.2608 58.6389 67.4069 56.5895 50.0922 51.6125C34.6659 47.1784 19.6472 41.7418 7.46007 30.6524C4.52379 27.9807 1.67783 25.2153 0 21.5602C0.984467 20.5405 1.70506 21.1289 2.30664 21.6312C16.5251 33.5014 33.6522 38.0972 51.3707 40.97C78.581 45.3818 106.057 45.3129 133.517 45.3772C140.917 45.3945 141.484 45.9115 141.803 52.4742Z" fill="url(#paint1_linear_981_9279)"/>
<path d="M29.6236 86.4828C17.7942 81.0633 7.06998 74.8464 0.661377 63.1001C1.21847 63.3219 1.87071 63.4247 2.31891 63.7828C18.9902 77.1036 38.8746 81.2296 59.315 84.1107C83.793 87.561 108.415 86.9069 133.003 87.435C135.894 87.4971 139.849 86.4715 141.145 89.6161C142.775 93.5699 142.2 98.1536 141.422 102.406C141.084 104.25 139.032 103.77 137.58 103.798C120.095 104.132 102.704 102.796 85.3958 100.487C66.4161 97.9554 47.7029 94.2279 29.6236 86.4828Z" fill="url(#paint2_linear_981_9279)"/>
<path d="M61.3818 63.2427C73.3733 64.9511 84.9994 65.5794 96.6322 65.9674C110.107 66.4169 123.589 66.6915 137.07 66.8981C140.424 66.9495 141.758 68.1714 141.874 71.6112C142.249 82.7265 141.028 83.4569 129.913 82.9904C113.112 82.2854 96.3881 81.1121 79.7506 78.6615C59.075 75.6162 38.9206 70.8683 20.3279 60.8806C13.3503 57.1324 7.29001 52.2475 2.26419 46.1238C1.29369 44.9413 -0.341245 43.9649 0.366008 41.3599C18.119 55.8754 39.0619 60.8537 61.3818 63.2427Z" fill="url(#paint3_linear_981_9279)"/>
<path d="M20.1586 11.9384C35.1243 18.0657 50.4651 20.6996 66.0889 22.2767C89.6362 24.6536 113.244 25.2708 136.882 25.1996C140.553 25.1886 141.803 26.5774 141.881 30.1972C142.113 41.0661 140.886 42.403 130.721 41.6211C115.637 40.4607 100.507 40.0075 85.4859 37.9204C62.1263 34.6746 39.2421 29.9512 18.4358 18.1421C12.2974 14.658 6.91321 10.2109 2.41779 4.75533C1.42842 3.55466 -0.136763 2.54643 0.255006 0C6.69945 4.41554 12.7493 8.98515 20.1586 11.9384Z" fill="url(#paint4_linear_981_9279)"/>
<path d="M98.4306 142.073H93.7154V136.08H74.8547V132.775L92.9222 112.548H98.4306V131.806H103.498V136.08H98.4306V142.073ZM81.4207 131.806H93.7154V118.101H93.3629L81.4207 131.453V131.806Z" fill="black"/>
<path d="M70.7708 142.097H47.2185V139.116C47.2185 133.91 49.2757 131.307 55.0693 129.334L61.7865 127.025C65.1451 125.807 66.3206 124.674 66.3206 122.197C66.3206 119.216 64.3894 117.705 59.3515 117.705C53.7258 117.705 51.6267 119.678 51.6267 123.372V123.876H47.1765V123.456C47.1765 118.25 50.745 113.548 59.5194 113.548C67.4962 113.548 70.8548 117.327 70.8548 122.281C70.8548 126.899 67.874 129.334 62.92 130.845L57.0005 132.65C53.222 133.952 51.9206 135.295 51.9206 138.486L58.7218 138.024H70.7708V142.097Z" fill="black"/>
<path d="M43.1766 142.677H20.6738V114.548H43.1766V118.621H25.208V126.513H42.5468V130.544H25.208V138.604H43.1766V142.677Z" fill="black"/>
<path d="M215.26 142.494C206.58 142.494 202.154 138.674 202.154 132.555V132.295H206.841V132.989C206.841 136.461 208.88 138.197 215.26 138.197C220.815 138.197 222.768 136.982 222.768 134.248C222.768 131.731 221.292 130.776 217.603 130.081L210.486 128.91C205.582 128.042 202.11 125.785 202.11 121.011C202.11 116.801 205.582 112.548 214.609 112.548C223.115 112.548 226.978 116.801 226.978 122.487V122.747H222.334V122.183C222.334 118.624 220.207 116.845 214.175 116.845C208.88 116.845 206.797 118.147 206.797 120.751C206.797 123.268 208.273 124.092 211.701 124.83L218.775 126.045C224.591 127.087 227.455 129.734 227.455 133.987C227.455 138.414 223.853 142.494 215.26 142.494Z" fill="black"/>
<path d="M182.964 142.494C174.414 142.494 168.729 136.591 168.729 127.521C168.729 118.451 174.848 112.548 184.136 112.548C192.381 112.548 198.11 116.715 198.11 123.441V123.789H192.946V123.441C192.946 119.275 190.038 117.018 184.005 117.018C177.018 117.018 173.676 120.273 173.676 127.521C173.676 134.769 176.975 137.98 183.788 137.98C190.732 137.98 193.466 136.07 193.466 131.166V130.776H182.703V127.217H198.11V142.06H193.857V135.767H193.553C192.338 140.02 188.649 142.494 182.964 142.494Z" fill="black"/>
<path d="M133.784 142.494H110.498V112.548H115.325V138.158H133.784V142.494Z" fill="black"/>
<circle cx="150.757" cy="127.521" r="13.101" stroke="black" stroke-width="3.74315"/>
<path d="M152 127.113L159.509 130.94L158.602 132.721L150 128.5V122H152V127.113Z" fill="black"/>
<defs>
<linearGradient id="paint0_linear_981_9279" x1="221.229" y1="32.7852" x2="137.729" y2="90.7852" gradientUnits="userSpaceOnUse">
<stop stop-color="#D97603"/>
<stop offset="1"/>
</linearGradient>
<linearGradient id="paint1_linear_981_9279" x1="130.789" y1="20.8771" x2="92.0001" y2="104.968" gradientUnits="userSpaceOnUse">
<stop offset="0.259615" stop-color="#D97603"/>
<stop offset="1"/>
</linearGradient>
<linearGradient id="paint2_linear_981_9279" x1="131.162" y1="62.9772" x2="92.3339" y2="146.988" gradientUnits="userSpaceOnUse">
<stop offset="0.259615" stop-color="#D97603"/>
<stop offset="1"/>
</linearGradient>
<linearGradient id="paint3_linear_981_9279" x1="130.886" y1="41.234" x2="90.5473" y2="126.584" gradientUnits="userSpaceOnUse">
<stop offset="0.259615" stop-color="#D97603"/>
<stop offset="1"/>
</linearGradient>
<linearGradient id="paint4_linear_981_9279" x1="130.863" y1="-0.126098" x2="90.4036" y2="85.3138" gradientUnits="userSpaceOnUse">
<stop offset="0.259615" stop-color="#D97603"/>
<stop offset="1"/>
</linearGradient>
</defs>
</svg>
